<?xml version="1.0" encoding="UTF-8"?>

<svg xmlns="http://www.w3.org/2000/svg" width="3672.382" height="1070.797" viewBox="0 0 971.651 283.315"><path d="M133.568 283.19c-21.581-.806-43.127-6.931-62.044-17.64-17.74-10.043-33.497-24.297-45.29-40.97-15.02-21.235-23.451-44.508-25.92-71.542-.419-4.593-.419-18.137 0-22.754 1.78-19.598 6.209-35.624 14.44-52.255 4.537-9.166 9.017-16.374 14.802-23.813 17.492-22.495 39.3-38.04 66.442-47.358 6.184-2.123 15.19-4.27 22.621-5.393 12.868-1.944 27.963-1.954 40.605-.027 17.452 2.66 33.487 8.25 48.56 16.932 35.002 20.16 60.085 55.526 67.833 95.642 2.796 14.476 3.336 29.662 1.602 44.98-1.068 9.425-3.555 20.238-6.848 29.765-11.15 32.252-33.755 59.622-63.16 76.468-18.336 10.505-40.93 17.13-60.943 17.87l-5.556.205c-1.164.042-4.379-.007-7.144-.11zm-30.398-86.734c8.704-1.348 14.25-2.89 30.398-8.449l15.034-5.174c15.658-5.386 24.764-7.404 34.973-7.75 11.96-.404 22.964 2.376 32.4 8.186 1.204.741 2.051 1.074 2.783 1.094.996.027 1.07-.027 1.393-.997.274-.823.327-9.12.271-41.937l-.07-40.91-.583-1.25c-.78-1.67-2.406-3.388-4.54-4.793-6.237-4.105-13.024-6.82-20.41-8.164-3.711-.676-12.704-.82-16.536-.266-9.707 1.404-19.412 4.523-46.699 15.01-9.293 3.571-16.225 5.856-22.093 7.282-18.063 4.39-32.262 2.41-46.434-6.475-3.12-1.955-3.96-2.14-4.69-1.026-.443.676-.474 2.965-.548 41.21-.086 44.74-.161 42.585 1.562 44.676.431.523 1.784 1.555 3.007 2.294 6.904 4.17 15.318 7.036 23.29 7.934 3.552.4 13.536.117 17.492-.495zm227.772 16.852c-.071-.188-.1-32.37-.062-71.515l.068-71.173h27.913c30.199 0 30.396.008 37.306 1.497 23.921 5.153 43.863 23.107 51.823 46.657 4.824 14.272 5.02 30.307.546 44.876-4.355 14.186-13.559 27.253-25.432 36.108a70.248 70.248 0 01-26.436 12.168c-7.004 1.58-5.846 1.53-36.951 1.63-23.233.076-28.67.03-28.775-.248zm51.996-30.637c8.33-.422 13.841-2.187 20.505-6.57 3.506-2.306 8.667-7.431 10.956-10.88 9.662-14.553 9.466-32.848-.503-46.976-2.01-2.85-6.236-7.154-9.05-9.221-3.924-2.88-9.41-5.424-14.097-6.534-3.888-.92-5.82-1.035-17.7-1.051l-11.802-.016-.068 40.612-.069 40.612.926.1c1.963.212 16.242.16 20.902-.076zm121.247-12.631c.086-42.996.095-43.64.65-47.038 1.946-11.907 6.274-21.694 13.452-30.421 12.118-14.732 29.648-22.701 48.404-22.006 8.938.332 16.436 2.217 24.342 6.121 16.085 7.944 28.019 23.034 32.243 40.772 1.684 7.075 1.592 4.193 1.685 52.305l.086 43.855h-30.178v-30.692h-60.32l-.069 15.28-.068 15.28-15.158.068-15.157.068zm90.544-29.702c-.008-12.77-.088-13.67-1.617-18.256-3.516-10.551-12.927-18.642-23.704-20.38-3.019-.486-9.524-.206-12.242.527-9.75 2.631-17.605 9.98-20.997 19.646-1.493 4.253-1.623 5.743-1.624 18.663v11.708l30.097-.067 30.096-.067-.008-11.774zm82.879 31.155c.037-27.675.155-43.27.344-45.443 1.08-12.43 6.358-24.897 14.62-34.54 14.073-16.426 35.646-24.011 56.72-19.944 23.503 4.535 42.279 22.954 47.577 46.671 1.63 7.298 1.556 4.964 1.658 52.197l.094 43.194H768.172l-.003-41.87c0-34.993-.064-42.284-.381-44.386-.837-5.554-3.156-10.808-6.597-14.948-4.578-5.508-10.52-9.101-17.498-10.579-2.455-.52-8.437-.52-11.175 0-12.737 2.415-22.79 13.214-24.38 26.19-.2 1.643-.292 15.281-.292 43.987v41.606H677.55l.056-42.135zm173.114 1.177c0-25.708.101-42.282.273-44.516.741-9.651 3.161-18.173 7.322-25.784 7.896-14.443 20.836-25.005 36.06-29.434 5.388-1.567 9.079-2.161 14.685-2.364 16.734-.606 32.49 5.6 44.446 17.51 7.878 7.846 13.863 18.534 16.386 29.263 1.685 7.163 1.584 4.002 1.674 52.296l.083 43.987h-30.177v-30.692h-60.325v30.692h-30.427zm90.698-30.877c.082-10.841-.09-13.75-1.039-17.577-2.095-8.448-8.34-16.098-16.238-19.89-11.354-5.455-24.833-3.222-33.727 5.585-3.632 3.596-6.173 7.662-7.781 12.45-1.348 4.012-1.486 5.709-1.486 18.277v11.608l30.096-.067 30.096-.067z" fill="#06f"/></svg>