<?xml version="1.0" encoding="UTF-8"?>

<svg xmlns="http://www.w3.org/2000/svg" width="343.002" height="81.911" viewBox="0 0 343.002 81.911"><g transform="scale(5.11944)" fill="none" fill-rule="evenodd"><path d="M35.602 7.223a2.288 2.288 0 00-2.291-2.286 2.288 2.288 0 00-2.29 2.286 2.288 2.288 0 002.29 2.286c.617.031 1.218-.2 1.654-.635a2.175 2.175 0 00.637-1.651m-6.82 0c0-2.4 1.895-4.252 4.535-4.252s4.53 1.852 4.53 4.252c0 2.4-1.879 4.246-4.53 4.246-2.652 0-4.536-1.852-4.536-4.246m-3.584.434c0 .994-1.003 1.789-2.291 1.789a2.144 2.144 0 01-1.708-.597 2.135 2.135 0 01-.64-1.689c0-1.314.962-2.217 2.44-2.217 1.145 0 2.193.828 2.193 1.76zm.091-4.686v.949a3.653 3.653 0 00-2.726-.949 4.233 4.233 0 00-4.197 4.269 4.233 4.233 0 004.278 4.189 3.44 3.44 0 002.605-.978v.823c0 1.097-.945 1.909-2.193 1.909a3.44 3.44 0 01-2.634-.966l-1.46 1.406a5.601 5.601 0 004.14 1.628c2.56 0 4.317-1.714 4.317-4v-8.28z" fill="#000" fill-rule="nonzero"/><path d="M39.192 3.194h2.153v.715h.029a3.572 3.572 0 012.588-.938 4.25 4.25 0 014.255 4.246 4.25 4.25 0 01-4.255 4.246 3.865 3.865 0 01-2.514-.852v4.035h-2.244zm4.427 1.76c-1.186 0-2.182.835-2.182 1.715v1.045c0 .972.968 1.777 2.193 1.777a2.287 2.287 0 002.01-2.268 2.287 2.287 0 00-2.01-2.269zm8.738 1.486c1.472-.194 1.907-.406 1.907-.817 0-.532-.572-.852-1.42-.852a1.907 1.907 0 00-2.004 1.44l-2.119-.44c.304-1.634 1.987-2.8 4.06-2.8 2.348 0 3.803 1.195 3.803 3.149v5.143h-2.016v-.909a3.33 3.33 0 01-2.715 1.109c-1.77 0-3-.972-3-2.4 0-1.429.968-2.274 3.504-2.623zm2.09.851h-.045c-.2.286-.624.452-1.718.652-1.317.24-1.787.497-1.787.971 0 .475.39.697 1.243.697 1.282 0 2.29-.571 2.29-1.365l.018-.955zm6.197 3.503l-3.711-7.6H59.4l2.445 5.246 2.411-5.246h2.485l-5.56 11.429h-2.468z" fill="#231f20" fill-rule="nonzero"/><ellipse cx="7.473" cy="8.029" rx="7.158" ry="7.143" fill="#00aed6" fill-rule="nonzero"/><path d="M11.648 7.851A1.682 1.682 0 009.93 6.246H5.268a.297.297 0 01-.297-.297.32.32 0 01.297-.298h4.713A1.241 1.241 0 008.94 4.51a11.374 11.374 0 00-4.008 0A1.716 1.716 0 003.5 5.967a14.928 14.928 0 000 4.285 1.75 1.75 0 001.523 1.458c1.654.205 3.328.205 4.982 0a1.717 1.717 0 001.49-1.372c.142-.82.194-1.654.154-2.486zm-1.312 1.223v.383a.297.297 0 01-.595 0v-.383a.571.571 0 01-.178-.36.468.468 0 01.476-.474.47.47 0 01.48.474.72.72 0 01-.183.36z" fill="#fff"/><path d="M0 0h67v16H0z"/></g></svg>
