<?xml version="1.0" encoding="UTF-8"?>

<svg xmlns="http://www.w3.org/2000/svg" width="253" height="150" viewBox="0 0 912
540">
  <defs>
    <style>
      .indosat-cls-1{fill:#fff}
      .indosat-cls-3{fill:#ed1c24}
      .indosat-cls-4{fill:#231f20}
    </style>
  </defs>
  <path class="indosat-cls-1" d="M819 295.1a108.7 108.7 0 0 0-15-55.1 108.7 108.7 0 0 0 15-55.1c0-59.4-47.7-107.7-106.4-107.7l-109.7.1c-20.5 0-26.1 17-26.2 26.1v29.1a135 135 0 0 0-107-55.7 139.6 139.6 0 0 0-79.2 24.5 139.8 139.8 0 0 0-79.1-24.5c-44.7 0-85.8 24.4-110 60v-7l-.1-2.7a53.6 53.6 0 0 0-15.6-35.2 53.8 53.8 0 1 0-76.3 0 53.6 53.6 0 0 0-15.7 36.6v341.4a66.7 66.7 0 0 0 66.6 66.6h592a66.7 66.7 0 0 0 66.7-66.6z"/>
  <path d="M119.9 53.9a27.6 27.6 0 1 1 27.6 27.5 27.6 27.6 0 0 1-27.6-27.6z" fill="#ee3436"/>
  <path class="indosat-cls-3" d="M119.9 53.8a27.6 27.6 0 1 1 27.5 27.6A27.6 27.6 0 0 1 120 53.8z"/>
  <path class="indosat-cls-4" d="M147.5 103.4a28.1 28.1 0 0 0-27.7 26.7v246.5h55.4V129.3a27.8 27.8 0 0 0-27.7-25.9zM469.6 103a112.3 112.3 0 0 0-68.8 23.2l-10.3 8-10.3-8a112.4 112.4 0 0 0-68.8-23.2c-56.6 0-106.2 48.7-106.2 104.2v169.4h55.3V207.9c0-27.7 22.4-49.4 51-49.4s52 22.1 52 49.4V348c0 20.7 17.4 26.1 26.7 26.1a27 27 0 0 0 26.8-26.1V207.8a50.8 50.8 0 0 1 52-49.3 50.5 50.5 0 0 1 51.5 49.4v168.7h55.3V207.2c0-55.5-49.6-104.2-106.1-104.2zM711.2 266a28.7 28.7 0 0 1 0 57.3H602.5v53.2h110a81 81 0 0 0 80-81.4 82.9 82.9 0 0 0-16-48.7l-4.7-6.4 4.7-6.4a83 83 0 0 0 16-48.7 81 81 0 0 0-80.3-81.5l-109.7.1v52.8H711a28.6 28.6 0 0 1 0 57.3h-58.9a26.2 26.2 0 0 0 0 52.4z"/>
  <path class="indosat-cls-3" d="M766.6 412.3a52.8 52.8 0 0 0-49.9 0 53.2 53.2 0 0 0-22.6 23.5 53 53 0 0 0-22.6-23.5 52.7 52.7 0 0 0-49.9 0 53.2 53.2 0 0 0-22.7 23.7 53.3 53.3 0 0 0-22.7-23.7 52.8 52.8 0 0 0-50 0 53.4 53.4 0 0 0-22.4 23.4 52.9 52.9 0 0 0-22.5-23.4 52.8 52.8 0 0 0-50 0 53 53 0 0 0-22.5 23.5 53.2 53.2 0 0 0-22.6-23.5 52.7 52.7 0 0 0-50 0 53.3 53.3 0 0 0-22.6 23.6 52.8 52.8 0 0 0-95 0 53 53 0 0 0-22.7-23.6 52.8 52.8 0 1 0 22.6 69.6 52.8 52.8 0 0 0 95.1 0 52.9 52.9 0 0 0 95.2 0 52.8 52.8 0 0 0 95 .2 52.9 52.9 0 0 0 95-.3 52.9 52.9 0 0 0 95.3.1 52.9 52.9 0 1 0 72.5-69.6z"/>
  <path class="indosat-cls-1" d="M189.8 439.8a26.6 26.6 0 0 0-8.5-5.8 27 27 0 0 0-21 0 26.2 26.2 0 0 0-8.5 5.8 28.7 28.7 0 0 0-5.7 8.5 27.3 27.3 0 0 0 0 21 26.9 26.9 0 0 0 14.3 14.3 27.3 27.3 0 0 0 21 0 28 28 0 0 0 8.5-5.7 27.4 27.4 0 0 0 5.7-8.5 27 27 0 0 0 0-21.1 28.4 28.4 0 0 0-5.8-8.5zm-4.1 25.3a16 16 0 0 1-3.5 5.1 16.5 16.5 0 0 1-5.1 3.5 15.8 15.8 0 0 1-12.5 0 16.7 16.7 0 0 1-8.7-8.6 15 15 0 0 1-1.3-6.3 15.4 15.4 0 0 1 1.3-6.3 16.9 16.9 0 0 1 3.5-5.1 15.9 15.9 0 0 1 17.7-3.5 16.3 16.3 0 0 1 5.1 3.5 16.7 16.7 0 0 1 3.5 5 15.9 15.9 0 0 1 0 12.7zM285 439.8a26.7 26.7 0 0 0-8.5-5.8 27 27 0 0 0-21 0 26.9 26.9 0 0 0-8.5 5.8 28.9 28.9 0 0 0-5.8 8.5 27.3 27.3 0 0 0 0 21 27.8 27.8 0 0 0 5.8 8.6 28.1 28.1 0 0 0 8.5 5.7 27.4 27.4 0 0 0 21 0 28 28 0 0 0 8.5-5.7 27.3 27.3 0 0 0 5.7-8.5 26.8 26.8 0 0 0 0-21 28.3 28.3 0 0 0-5.7-8.6zm-4.2 25.3a15.9 15.9 0 0 1-3.4 5.1 16.4 16.4 0 0 1-5.2 3.5 15.3 15.3 0 0 1-6.2 1.3 15.5 15.5 0 0 1-6.3-1.3 17 17 0 0 1-5.1-3.5 16.2 16.2 0 0 1-3.5-5.1 15.5 15.5 0 0 1-1.3-6.3 16 16 0 0 1 1.3-6.3 17 17 0 0 1 3.5-5.1 16.3 16.3 0 0 1 5-3.5 15.6 15.6 0 0 1 6.4-1.3 15.4 15.4 0 0 1 6.2 1.3 16.2 16.2 0 0 1 5.2 3.5 16.6 16.6 0 0 1 3.4 5 16 16 0 0 1 0 12.7zM665.4 439.8a26.9 26.9 0 0 0-29.5-5.8 27 27 0 0 0-8.6 5.8 28.4 28.4 0 0 0-5.7 8.5 26.8 26.8 0 0 0 0 21 27.4 27.4 0 0 0 5.7 8.6 28 28 0 0 0 8.6 5.7 27.4 27.4 0 0 0 21 0 26.9 26.9 0 0 0 14.2-14.2 27.2 27.2 0 0 0 0-21 28.1 28.1 0 0 0-5.7-8.6zm-4.2 25.3a16 16 0 0 1-3.4 5.1 16.6 16.6 0 0 1-5.1 3.5 16 16 0 0 1-12.6 0 17.2 17.2 0 0 1-5.1-3.5 16.9 16.9 0 0 1-3.5-5.1 15.8 15.8 0 0 1-1.3-6.3 16.3 16.3 0 0 1 1.3-6.3 17.8 17.8 0 0 1 3.5-5.1 16.6 16.6 0 0 1 5-3.5 15.9 15.9 0 0 1 12.7 0 16.4 16.4 0 0 1 5 3.5 16.8 16.8 0 0 1 3.5 5 16 16 0 0 1 0 12.7zM760.5 439.8A27 27 0 0 0 731 434a26.8 26.8 0 0 0-8.4 5.8 28.4 28.4 0 0 0-5.8 8.5 27 27 0 0 0 0 21 27.1 27.1 0 0 0 5.8 8.6 28 28 0 0 0 8.4 5.7 27.5 27.5 0 0 0 21.1 0 27 27 0 0 0 14.3-14.2 27 27 0 0 0 0-21 29 29 0 0 0-5.8-8.6zm-4.2 25.3a15.4 15.4 0 0 1-3.4 5.1 16.8 16.8 0 0 1-5.2 3.5 15.3 15.3 0 0 1-6.2 1.3 15.6 15.6 0 0 1-6.3-1.3 16.7 16.7 0 0 1-8.6-8.6 16 16 0 0 1-1.3-6.3 16.4 16.4 0 0 1 1.3-6.3 17.6 17.6 0 0 1 3.5-5.1 16 16 0 0 1 5.1-3.5 15.7 15.7 0 0 1 6.3-1.3 15.3 15.3 0 0 1 6.2 1.3 16.6 16.6 0 0 1 5.2 3.5 16 16 0 0 1 3.4 5 15.6 15.6 0 0 1 0 12.7zM372.5 447.2a16.5 16.5 0 0 1 3.5 5.1 14.4 14.4 0 0 1 1 3.5h10.8a27 27 0 0 0-16.2-22 26.4 26.4 0 0 0-10.5-2.1 27 27 0 0 0-10.6 2 27.3 27.3 0 0 0-8.5 5.8 26.7 26.7 0 0 0-5.8 8.4 27.6 27.6 0 0 0-2 10.7V484h10.7v-26.3a16 16 0 0 1 4.7-10.6 16.7 16.7 0 0 1 5.1-3.5 15.9 15.9 0 0 1 12.6 0 17 17 0 0 1 5.2 3.5zM481 448.9a29.2 29.2 0 0 0-5.3-8.8 25.6 25.6 0 0 0-8.4-6 27.6 27.6 0 0 0-21.7-.2 27.3 27.3 0 0 0-8.6 5.7 26.5 26.5 0 0 0-5.7 8.5 27.1 27.1 0 0 0 0 21 26.8 26.8 0 0 0 5.7 8.6 27.9 27.9 0 0 0 8.6 5.7 26.5 26.5 0 0 0 10.5 2.1 31.7 31.7 0 0 0 8.3-1.1 25.8 25.8 0 0 0 7.7-3.6 25.5 25.5 0 0 0 6.2-6.4 32.8 32.8 0 0 0 4.4-9h-11.9a15.5 15.5 0 0 1-5.5 6.8 16.7 16.7 0 0 1-20.4-1.9 16.3 16.3 0 0 1-3.5-4.8 14 14 0 0 1-1.4-6v-.5H483a31.6 31.6 0 0 0-2-10.1zm-39.1.8l.5-.7c2.6-4.3 7.2-6.6 13.8-6.8 6.5 0 11 2.4 13.7 6.8l.4.7zM578.2 458.4v-45.1a54.6 54.6 0 0 0-10.8-4.8V438l-.8-.8a18 18 0 0 0-3-2.2 28.4 28.4 0 0 0-3.8-1.8 27 27 0 0 0-4.2-1.3 19.5 19.5 0 0 0-4.3-.5 26.3 26.3 0 0 0-10.5 2.1 28.4 28.4 0 0 0-8.6 5.8 28 28 0 0 0-5.7 8.5 27.3 27.3 0 0 0 0 21 27 27 0 0 0 14.2 14.3 26.6 26.6 0 0 0 10.6 2 27 27 0 0 0 19-7.7 26.3 26.3 0 0 0 5.8-8.5 27 27 0 0 0 2-10.6zm-10.8 0a15.7 15.7 0 0 1-1.3 6.3 17.2 17.2 0 0 1-3.4 5.1 17.5 17.5 0 0 1-5.2 3.5 15.8 15.8 0 0 1-6.2 1.3 15.6 15.6 0 0 1-6.3-1.3 16.7 16.7 0 0 1-5.1-3.5 16.4 16.4 0 0 1-3.5-5.1 15.7 15.7 0 0 1 0-12.6 16.4 16.4 0 0 1 8.6-8.6 15.8 15.8 0 0 1 12.5 0 17.1 17.1 0 0 1 5.2 3.5 16.8 16.8 0 0 1 3.4 5.1 15.6 15.6 0 0 1 1.4 6.3z"/>
</svg>
