<?xml version="1.0" encoding="UTF-8"?>
<svg viewBox="0 0 17 22" xmlns="http://www.w3.org/2000/svg" xmlns:xlink="http://www.w3.org/1999/xlink" width="17" height="22">
    <path d="M14.167 9.191a5.77 5.77 0 0 1-.483-.382 5.28 5.28 0 0 1 .222-.34c.468-.689 1.35-1.988 1.35-3.848a4.274 4.274 0 0 0-1.314-3.113C13.012.62 11.544 0 9.39 0 7.346 0 5.047.68 3.058 1.866 2.17 2.403 1.434 2.976.92 3.532.407 4.084.11 4.615.11 5.07c0 .222.084.425.243.583.291.288.804.422 1.462.495.657.07 1.458.072 2.322.072h.153c1.33 0 2.269.037 2.87.125.3.045.515.103.647.17.135.07.177.14.18.215.003.03-.033.103-.117.185-.288.292-1.041.722-1.72 1.199-.338.237-.66.488-.9.743-.237.255-.399.516-.402.786v.012c.003.343.183.616.457.829.825.64 2.532.807 3.427.97.552.1.843.301 1.002.516.159.216.186.459.186.665 0 .774-.285 1.457-.795 1.927-.453.422-1 .695-1.795.695h-.096c.018-.155.027-.307.027-.452 0-.91-.354-1.672-.957-2.2-.6-.528-1.447-.826-2.428-.826-1.21 0-2.181.507-2.848 1.263A4.19 4.19 0 0 0 0 15.776c0 1.547.705 3.1 2.08 4.263 1.374 1.165 3.418 1.939 6.094 1.939 2.122 0 4.262-.707 5.882-1.94C15.398 19.017 17 17.157 17 14.102c0-2.801-1.854-4.185-2.833-4.91zm-8.444.197c.297-.3.909-.722 1.365-1.016.447-.292.85-.552 1.146-.81.295-.261.487-.525.487-.832a.894.894 0 0 0-.268-.637c-.312-.31-.864-.455-1.554-.534-.69-.076-1.518-.079-2.377-.079h-.237c-.708 0-1.272-.01-1.722-.027.624-.246 1.35-.637 2.14-1.062 1.28-.692 2.697-1.46 4.033-1.803-.31.355-.508.756-.51 1.102 0 .085.026.176.09.246.065.07.167.118.306.118.237 0 .504-.094.813-.191.417-.14.9-.298 1.431-.298.462 0 .963.119 1.498.48-.355.024-.646.127-.826.273-.198.155-.246.328-.243.449.003.197.138.349.31.546.275.313.633.722.636 1.384 0 .482-.184.995-.454 1.387l.003-.085c0-.337-.075-.714-.255-.929a.555.555 0 0 0-.42-.197c-.279.003-.522.218-.882.519-.255.212-.573.485-.972.74-1.687 1.074-2.59 1.49-3.23 1.542-.242.012-.596.006-.308-.286zm1.545 6.57c.948 0 1.74-.292 2.353-.86.654-.6 1.026-1.501 1.026-2.469 0-.464-.144-.85-.405-1.147 1.413.343 2.884 1.077 3.7 2.182a2.614 2.614 0 0 0-.882-.152c-.264.003-.474.282-.474.6 0 .168.063.356.138.592.117.368.27.841.27 1.405 0 .522-.13 1.12-.534 1.788-.012-.54-.156-.971-.34-1.202-.143-.179-.3-.225-.405-.221-.168 0-.3.084-.408.212-.11.13-.204.303-.312.504-.39.707-1.002 1.832-2.917 2.415.174-.303.264-.613.264-.859a.726.726 0 0 0-.045-.264.353.353 0 0 0-.33-.236h-.003c-.21.009-.453.075-.735.157-.441.125-.975.277-1.563.277-.61 0-1.276-.161-1.96-.686.237-.037.447-.122.6-.252a.54.54 0 0 0 .204-.4c-.003-.228-.18-.383-.38-.568-.295-.28-.643-.607-.643-1.162 0-.161.03-.34.1-.543.062.176.152.333.27.467.18.194.392.315.602.315.22.003.351-.103.405-.236.057-.134.054-.289.054-.407 0-.136.063-.267.162-.364a.554.554 0 0 1 .379-.158c.32 0 .567.182.738.452.168.27.258.632.258.968 0 .21-.033.41-.102.577l-.072.179.153-.118c.288-.228.513-.55.618-.783.063-.003.141-.003.216-.003zM1 5.288C.9 5.229.837 5.165.837 5.07c0-.264.25-.685.705-1.147C2.917 2.531 6.098.737 9.39.74c1.665 0 3.022.416 3.922 1.196.78.674 1.21 1.626 1.21 2.685 0 1.63-.76 2.752-1.222 3.432-.237.343-.375.546-.378.777 0 .182.087.334.225.48.14.145.339.294.582.476.96.719 2.536 1.89 2.536 4.312 0 2.752-1.438 4.424-2.65 5.346-1.491 1.138-3.478 1.79-5.444 1.79-4.906-.003-7.445-2.76-7.445-5.465 0-.804.297-1.623.837-2.239a3.01 3.01 0 0 1 2.311-1.03h.003c.55 0 1.246.13 1.798.503s.966.983.966 1.973v.085a1.489 1.489 0 0 0-.213-.353 1.223 1.223 0 0 0-.984-.464.98.98 0 0 0-.976.96.554.554 0 0 1-.024.187c-.003.012-.009.018-.012.021-.129-.003-.282-.094-.402-.27-.123-.179-.213-.446-.213-.786 0-.066.003-.14.012-.212l.015-.158-.105.119c-.495.558-.675 1.062-.675 1.499 0 .713.474 1.22.756 1.483.051.049.114.107.165.158l.06.07.015.024c0 .003.003.003.003.006-.003.028-.057.094-.186.146-.14.06-.366.106-.69.106-.111 0-.237-.006-.372-.018l-.123-.012.078.097c.94 1.132 1.977 1.441 2.878 1.441.663 0 1.254-.167 1.68-.288.18-.052.381-.127.492-.127.048 0 .066.012.075.024a.136.136 0 0 1 .018.085c0 .13-.075.37-.204.616a2.622 2.622 0 0 1-.507.685l-.12.11.162-.021c2.746-.358 3.661-1.967 4.114-2.795.075-.14.147-.267.21-.358.063-.094.123-.14.138-.134.024 0 .07.025.114.091.136.204.25.71.25 1.238 0 .228-.021.465-.07.68l-.033.16.12-.111c1.036-.971 1.32-1.99 1.32-2.84 0-.65-.164-1.202-.281-1.557-.063-.197-.117-.373-.117-.458 0-.07.012-.107.027-.125.012-.018.036-.03.08-.042.439 0 .958.158 1.582.458l.123.058-.054-.125c-.846-2.002-2.73-2.861-4.564-3.329-.918-.233-1.828-.373-2.593-.506-.555-.097-1.038-.194-1.39-.322a2.842 2.842 0 0 1-.17-.079c1.047-.133 2.313-.88 3.439-1.611.423-.273.75-.552 1.011-.774.138-.115.264-.221.372-.297.105-.079.198-.122.237-.118.04 0 .07.015.105.054.102.112.165.422.162.762 0 .273-.036.564-.102.8l-.036.131.114-.072c.892-.58 1.32-1.46 1.32-2.282 0-.826-.452-1.342-.744-1.672a6.667 6.667 0 0 1-.138-.164 1.128 1.128 0 0 1-.069-.1.211.211 0 0 1 .082-.1c.185-.143.507-.231.876-.228.189 0 .39.021.594.07l.14.033-.086-.115c-.768-.998-1.65-1.284-2.437-1.284-.618 0-1.18.176-1.587.31-.198.067-.474.152-.594.152-.015 0-.027 0-.033-.003.003-.146.105-.392.303-.65.2-.267.498-.552.879-.783l.138-.085-.162-.012a2.472 2.472 0 0 0-.216-.009c-1.579.003-3.616 1.162-5.12 1.945C3.56 4.49 1.59 5.644 1 5.29z"/>
</svg>
